Coordinates
nRows=5
nColumns=24

# SIMM Motion File Header:
name Coordinates
datacolumns 24
datarows 5
otherdata 1
range 0.73699999999999999000 0.74099999999999999000

Units are S.I. units (second, meters, Newtons, ...)
Angles are in degrees.

endheader
time	pelvis_tx	pelvis_ty	pelvis_tz	pelvis_tilt	pelvis_list	pelvis_rotation	hip_flexion_r	hip_adduction_r	hip_rotation_r	knee_angle_r	ankle_angle_r	subtalar_angle_r	mtp_angle_r	hip_flexion_l	hip_adduction_l	hip_rotation_l	knee_angle_l	ankle_angle_l	subtalar_angle_l	mtp_angle_l	lumbar_extension	lumbar_bending	lumbar_rotation
      0.73699999999999999000	      0.96366476090667297000	      0.74129333421182320000	     -0.19390754185701820000	      6.10904747533611300000	     -0.30625920617252816000	      1.99068149648202790000	     -9.56910332697725070000	      6.95457019462194650000	      5.37510552752671430000	    -11.37890889916778100000	     13.66955807836867500000	      0.00000000000007445491	     -0.00000000000021886016	     20.20202738327854100000	     -0.72951341148915805000	     -7.99416067191801720000	    -14.44138154177998200000	      4.74600133653875570000	     -0.00000000000000362743	     -0.00000000000000268151	    -13.54847192835122100000	     -1.16639935252107320000	      5.45143551843666250000
      0.73799999999999999000	      0.96412946495520768000	      0.74118352183773073000	     -0.19394165360729190000	      6.12567528247594770000	     -0.31394443569124314000	      1.99601854684110290000	     -9.61018447947195040000	      6.96754785951896500000	      5.38381070478425450000	    -11.41383257862630000000	     13.72739150353228200000	      0.00000000000007444208	     -0.00000000000021901495	     20.20104870564384200000	     -0.71025350862675696000	     -7.99066933997800800000	    -14.23500737546730100000	      4.72570188667418640000	     -0.00000000000000359847	     -0.00000000000000268033	    -13.54507287749286500000	     -1.15927757866914430000	      5.43678699950753600000
      0.73899999999999999000	      0.96459505157056646000	      0.74107308680184869000	     -0.19397562790456754000	      6.14191209267850800000	     -0.32165306254903814000	      2.00126373415436910000	     -9.65087847737999920000	      6.98049018841327570000	      5.39274064791147900000	    -11.44884100249821300000	     13.78524050213326800000	      0.00000000000007444769	     -0.00000000000021918284	     20.20018840692162600000	     -0.69109597979274795000	     -7.98639426089428020000	    -14.02972667905327100000	      4.70509106262855960000	     -0.00000000000000356868	     -0.00000000000000268079	    -13.54112627017801900000	     -1.15226603207685190000	      5.42221022215563760000
      0.73999999999999999000	      0.96506151946157182000	      0.74096204091258899000	     -0.19400947265811658000	      6.15776056100505810000	     -0.32938622466799011000	      2.00641515445505990000	     -9.69119229412846290000	      6.99339542704598750000	      5.40190822185393050000	    -11.48392748901927100000	     13.84309783553706400000	      0.00000000000007451210	     -0.00000000000021937215	     20.19945244473705200000	     -0.67204435712594046000	     -7.98133456736151010000	    -13.82557258176351100000	      4.68417505768202250000	     -0.00000000000000354058	     -0.00000000000000268275	    -13.53663649348495700000	     -1.14536033954868840000	      5.40770391558122390000
      0.74099999999999999000	      0.96552886700046014000	      0.74085039653217821000	     -0.19404319589623983000	      6.17322355873290630000	     -0.33714497734209298000	      2.01147090898666070000	     -9.73113318348745260000	      7.00626176996294170000	      5.41132560411785060000	    -11.51908520472884800000	     13.90095610499890100000	      0.00000000000007457401	     -0.00000000000021957044	     20.19884649785091900000	     -0.65310210185487338000	     -7.97549041973604210000	    -13.62257790016386000000	      4.66295991010598240000	     -0.00000000000000351363	     -0.00000000000000268408	    -13.53160825174894700000	     -1.13855614862640930000	      5.39326698440995940000
